<svg width="40" height="40" viewBox="0 0 40 40" fill="none" xmlns="http://www.w3.org/2000/svg">
<path d="M20.0002 26.9584C19.7239 26.9584 19.4589 27.0681 19.2636 27.2635C19.0682 27.4588 18.9585 27.7238 18.9585 28C18.9585 28.2763 19.0682 28.5413 19.2636 28.7366C19.4589 28.932 19.7239 29.0417 20.0002 29.0417C20.2764 29.0417 20.5414 28.932 20.7367 28.7366C20.9321 28.5413 21.0418 28.2763 21.0418 28C21.0418 27.7238 20.9321 27.4588 20.7367 27.2635C20.5414 27.0681 20.2764 26.9584 20.0002 26.9584ZM20.0002 24.6667C20.2212 24.6667 20.4331 24.5789 20.5894 24.4226C20.7457 24.2663 20.8335 24.0544 20.8335 23.8334V11.1667C20.8335 10.9457 20.7457 10.7337 20.5894 10.5775C20.4331 10.4212 20.2212 10.3334 20.0002 10.3334C19.7791 10.3334 19.5672 10.4212 19.4109 10.5775C19.2546 10.7337 19.1668 10.9457 19.1668 11.1667V23.8334C19.1668 24.0544 19.2546 24.2663 19.4109 24.4226C19.5672 24.5789 19.7791 24.6667 20.0002 24.6667ZM20.0002 3.33337C10.7952 3.33337 3.3335 10.795 3.3335 20C3.3335 29.205 10.7952 36.6667 20.0002 36.6667C29.2002 36.6567 36.6568 29.2 36.6668 20C36.6668 10.795 29.2052 3.33337 20.0002 3.33337ZM20.0002 35C18.0303 35 16.0798 34.6121 14.2599 33.8582C12.44 33.1044 10.7864 31.9995 9.39356 30.6066C8.00068 29.2138 6.89579 27.5602 6.14197 25.7403C5.38815 23.9204 5.00016 21.9699 5.00016 20C5.00016 18.0302 5.38815 16.0797 6.14197 14.2598C6.89579 12.4399 8.00068 10.7863 9.39356 9.39344C10.7864 8.00056 12.44 6.89567 14.2599 6.14185C16.0798 5.38803 18.0303 5.00004 20.0002 5.00004C23.9771 5.00445 27.7898 6.58622 30.6019 9.39831C33.414 12.2104 34.9958 16.0231 35.0002 20C35.0002 23.9783 33.4198 27.7936 30.6068 30.6066C27.7937 33.4197 23.9784 35 20.0002 35Z" fill="white"/>
</svg>
