<svg width="0" height="0" class="hidden">
  <symbol fill="none" xmlns="http://www.w3.org/2000/svg" viewBox="0 0 24 24" id="icon-facebook">
    <g id="Property 1=facebook">
      <path id="Vector" d="M6 9.60001V14.4H9.6V22.8H14.4V14.4H18L19.2 9.60001H14.4V7.20001C14.4 6.88175 14.5264 6.57653 14.7515 6.35148C14.9765 6.12644 15.2817 6.00001 15.6 6.00001H19.2V1.20001H15.6C14.0087 1.20001 12.4826 1.83215 11.3574 2.95737C10.2321 4.08259 9.6 5.60871 9.6 7.20001V9.60001H6Z" stroke="currentColor" stroke-width="1.5" stroke-linecap="round" stroke-linejoin="round"></path>
    </g>
  </symbol>
  <symbol fill="none" xmlns="http://www.w3.org/2000/svg" viewBox="0 0 24 24" id="icon-insta">
    <g id="Property 1=insta" clip-path="url(#clip0_59_2326)">
      <path id="Vector" d="M17.1764 1.64697H6.82344C3.96456 1.64697 1.64697 3.96456 1.64697 6.82344V17.1764C1.64697 20.0353 3.96456 22.3529 6.82344 22.3529H17.1764C20.0353 22.3529 22.3529 20.0353 22.3529 17.1764V6.82344C22.3529 3.96456 20.0353 1.64697 17.1764 1.64697Z" stroke="currentColor" stroke-width="1.5" stroke-linecap="round" stroke-linejoin="round"></path>
      <path id="Vector_2" d="M12 15.8824C14.1442 15.8824 15.8824 14.1442 15.8824 12C15.8824 9.85586 14.1442 8.11768 12 8.11768C9.85586 8.11768 8.11768 9.85586 8.11768 12C8.11768 14.1442 9.85586 15.8824 12 15.8824Z" stroke="currentColor" stroke-width="1.5" stroke-linecap="round" stroke-linejoin="round"></path>
      <path id="Vector_3" d="M17.8235 6.17645V6.17745" stroke="currentColor" stroke-width="1.5" stroke-linecap="round" stroke-linejoin="round"></path>
    </g>
    <defs>
      <clipPath id="clip0_59_2326">
        <rect width="24" height="24" fill="white"></rect>
      </clipPath>
    </defs>
  </symbol>
  <symbol fill="none" xmlns="http://www.w3.org/2000/svg" viewBox="0 0 24 24" id="icon-telegram">
    <g id="Property 1=telegram">
      <path id="Vector" d="M15.6 9.60002L10.8 14.4L18 21.6L22.8 2.40002L1.19995 10.8L5.99995 13.2L8.39995 20.4L12 15.6" stroke="currentColor" stroke-width="1.5" stroke-linecap="round" stroke-linejoin="round"></path>
    </g>
  </symbol>
  <symbol fill="none" xmlns="http://www.w3.org/2000/svg" viewBox="0 0 24 24" id="icon-whatsapp">
    <g id="Property 1=whats_up" clip-path="url(#clip0_59_2392)">
      <g id="icon">
        <path id="Vector" d="M1.20007 22.8137L3.18318 18.2465C1.666 16.0928 0.98694 13.4594 1.27344 10.8406C1.55994 8.22179 2.79231 5.79754 4.73927 4.02281C6.68623 2.24809 9.21394 1.24489 11.848 1.20148C14.4821 1.15808 17.0415 2.07745 19.0459 3.78706C21.0503 5.49668 22.3618 7.87901 22.7345 10.487C23.1071 13.0949 22.5152 15.7492 21.0698 17.9518C19.6244 20.1543 17.4248 21.7536 14.884 22.4496C12.3432 23.1456 9.63565 22.8904 7.26959 21.732L1.20007 22.8137" stroke="currentColor" stroke-width="1.5" stroke-linecap="round" stroke-linejoin="round"></path>
        <path id="Vector_2" d="M8.41125 9.59262C8.41125 9.752 8.47457 9.90485 8.58727 10.0176C8.69996 10.1303 8.85282 10.1936 9.0122 10.1936C9.17158 10.1936 9.32443 10.1303 9.43713 10.0176C9.54983 9.90485 9.61314 9.752 9.61314 9.59262V8.39074C9.61314 8.23136 9.54983 8.0785 9.43713 7.96581C9.32443 7.85311 9.17158 7.78979 9.0122 7.78979C8.85282 7.78979 8.69996 7.85311 8.58727 7.96581C8.47457 8.0785 8.41125 8.23136 8.41125 8.39074V9.59262ZM8.41125 9.59262C8.41125 11.1864 9.04439 12.7149 10.1714 13.8419C11.2984 14.9689 12.8269 15.602 14.4207 15.602H15.6226C15.7819 15.602 15.9348 15.5387 16.0475 15.426C16.1602 15.3133 16.2235 15.1605 16.2235 15.0011C16.2235 14.8417 16.1602 14.6889 16.0475 14.5762C15.9348 14.4635 15.7819 14.4002 15.6226 14.4002H14.4207C14.2613 14.4002 14.1084 14.4635 13.9957 14.5762C13.883 14.6889 13.8197 14.8417 13.8197 15.0011C13.8197 15.1605 13.883 15.3133 13.9957 15.426C14.1084 15.5387 14.2613 15.602 14.4207 15.602" stroke="currentColor" stroke-width="1.5" stroke-linecap="round" stroke-linejoin="round"></path>
      </g>
    </g>
    <defs>
      <clipPath id="clip0_59_2392">
        <rect width="24" height="24" fill="white"></rect>
      </clipPath>
    </defs>
  </symbol>
  <symbol fill="none" xmlns="http://www.w3.org/2000/svg" viewBox="0 0 24 24" id="icon-youtube">
    <g id="Property 1=youtube">
      <path id="Vector" d="M18.1111 3H5.88889C3.18883 3 1 5.30254 1 8.14286V15.8571C1 18.6975 3.18883 21 5.88889 21H18.1111C20.8112 21 23 18.6975 23 15.8571V8.14286C23 5.30254 20.8112 3 18.1111 3Z" stroke="currentColor" stroke-width="1.5" stroke-linecap="round" stroke-linejoin="round"></path>
      <path id="Vector_2" d="M10 8L16 12L10 16V8Z" stroke="currentColor" stroke-width="1.5" stroke-linecap="round" stroke-linejoin="round"></path>
    </g>

    <symbol fill="none" xmlns="http://www.w3.org/2000/svg" viewBox="0 0 90 90" id="icon_play">
    <path d="M45.5 13C39.0721 13 32.7886 14.9061 27.444 18.4772C22.0994 22.0484 17.9338 27.1242 15.4739 33.0628C13.0141 39.0014 12.3705 45.536 13.6245 51.8404C14.8785 58.1448 17.9738 63.9357 22.519 68.481C27.0642 73.0262 32.8552 76.1215 39.1596 77.3755C45.464 78.6295 51.9986 77.9859 57.9372 75.5261C63.8758 73.0662 68.9516 68.9006 72.5228 63.556C76.0939 58.2114 78 51.9279 78 45.5C78 36.8805 74.5759 28.614 68.481 22.519C62.386 16.4241 54.1195 13 45.5 13Z" stroke="white" stroke-width="1.5" stroke-linecap="round" stroke-linejoin="round"></path>
    <path d="M39 58.5V32.5L58.5 45.5L39 58.5Z" fill="#currentColor" stroke="#currentColor" stroke-width="1.48936" stroke-linejoin="round"></path>
  </symbol>
  <symbol fill="none" xmlns="http://www.w3.org/2000/svg" viewBox="0 0 24 24" id="icon-eye">
    <g id="Property 1=eye" clip-path="url(#clip0_145_3268)">
      <path id="Vector" d="M12 14C13.1046 14 14 13.1046 14 12C14 10.8954 13.1046 10 12 10C10.8954 10 10 10.8954 10 12C10 13.1046 10.8954 14 12 14Z" stroke="currentColor" stroke-width="1.5" stroke-linecap="round" stroke-linejoin="round"></path>
      <path id="Vector_2" d="M22 12C19.333 16.667 16 19 12 19C8 19 4.667 16.667 2 12C4.667 7.333 8 5 12 5C16 5 19.333 7.333 22 12Z" stroke="currentColor" stroke-width="1.5" stroke-linecap="round" stroke-linejoin="round"></path>
    </g>
    <defs>
      <clipPath id="clip0_145_3268">
        <rect width="24" height="24" fill="white"></rect>
      </clipPath>
    </defs>
  </symbol>
  <symbol fill="none" xmlns="http://www.w3.org/2000/svg" viewBox="0 0 24 24" id="icon-location">
    <g id="Property 1=location 1">
      <path id="Vector" d="M12 22.8C16.8 17.76 19.2 12.96 19.2 8.40001C19.2 4.42356 15.9765 1.20001 12 1.20001C8.0236 1.20001 4.80005 4.42356 4.80005 8.40001C4.80005 12.96 7.20005 17.76 12 22.8Z" stroke="currentColor" stroke-width="1.5" stroke-linecap="square"></path>
      <path id="Vector_2" d="M12 13.2C13.9882 13.2 15.6 11.5882 15.6 9.6C15.6 7.61177 13.9882 6 12 6C10.0118 6 8.40002 7.61177 8.40002 9.6C8.40002 11.5882 10.0118 13.2 12 13.2Z" stroke="currentColor" stroke-width="1.5" stroke-linecap="square"></path>
    </g>
  </symbol>
  <symbol fill="none" xmlns="http://www.w3.org/2000/svg" viewBox="0 0 24 24" id="icon-mail">
    <g id="Property 1=mail">
      <g id="Group 25">
        <path id="Vector" d="M20.4615 4H4.30769C3.03319 4 2 5.04467 2 6.33333V18C2 19.2887 3.03319 20.3333 4.30769 20.3333H20.4615C21.736 20.3333 22.7692 19.2887 22.7692 18V6.33333C22.7692 5.04467 21.736 4 20.4615 4Z" stroke="currentColor" stroke-width="1.5" stroke-linecap="round" stroke-linejoin="round"></path>
        <path id="Vector_2" d="M2 6.3335L12.3846 13.3335L22.7692 6.3335" stroke="currentColor" stroke-width="1.5" stroke-linecap="round" stroke-linejoin="round"></path>
      </g>
    </g>
  </symbol>
  <symbol fill="none" xmlns="http://www.w3.org/2000/svg" viewBox="0 0 24 24" id="icon-phone">
    <g id="Property 1=phone">
      <path id="Vector" d="M3.69744 1.14288H8.80669L11.3613 7.52944L8.16803 9.4454C9.53598 12.2191 11.7809 14.464 14.5546 15.832L16.4706 12.6387L22.8571 15.1933V20.3025C22.8571 20.9801 22.588 21.6299 22.1089 22.1089C21.6298 22.588 20.98 22.8572 20.3025 22.8572C15.32 22.5544 10.6207 20.4386 7.09104 16.909C3.56142 13.3793 1.44561 8.67996 1.14282 3.6975C1.14282 3.01998 1.41197 2.3702 1.89105 1.89111C2.37014 1.41203 3.01992 1.14288 3.69744 1.14288" stroke="currentColor" stroke-width="1.5" stroke-linecap="round" stroke-linejoin="round"></path>
    </g>
  </symbol>

</svg>






